<svg xmlns="http://www.w3.org/2000/svg" width="1293.71" height="629.356" viewBox="0 0 1293.71 629.356">
  <path id="Path_5" data-name="Path 5" d="M203.148-33.022V-263.34h33.858V0H184.338L60.61-230.318H58.938V0H25.08V-263.34H77.748L201.476-33.022Zm162.6-153.824a93.341,93.341,0,0,1,37.411,7.315A83.771,83.771,0,0,1,432-159.258a93.986,93.986,0,0,1,18.6,30.514,105.973,105.973,0,0,1,6.688,38.038A104.294,104.294,0,0,1,450.6-52.877a94.5,94.5,0,0,1-18.6,30.3A83.771,83.771,0,0,1,403.161-2.3,93.341,93.341,0,0,1,365.75,5.016,93.341,93.341,0,0,1,328.339-2.3,83.771,83.771,0,0,1,299.5-22.572a94.5,94.5,0,0,1-18.6-30.3,104.294,104.294,0,0,1-6.688-37.829,105.973,105.973,0,0,1,6.688-38.038,93.986,93.986,0,0,1,18.6-30.514,83.771,83.771,0,0,1,28.842-20.273A93.341,93.341,0,0,1,365.75-186.846Zm0,165.11q26.752,0,42.009-18.392t15.257-51q0-32.186-15.257-50.787t-42.009-18.6q-26.752,0-42.009,18.6T308.484-91.124q0,32.6,15.257,51T365.75-21.736ZM546.744-158.422V-45.144A34.993,34.993,0,0,0,548.207-34.9a21.247,21.247,0,0,0,3.971,7.733q5.852,5.852,16.3,5.852a48.192,48.192,0,0,0,10.868-1.254,51.254,51.254,0,0,0,9.2-2.926l3.762-1.254L594.814-.418l-2.508.836L581.438,3.135a60.223,60.223,0,0,1-14.63,1.881h-.418q-25.08,0-38.874-14.212T513.722-47.234V-158.422h-41.8V-181.83h4.18q14.63,0,22.99-2.926t12.331-9.2q3.971-6.27,4.807-16.3t.836-24.244v-4.18h29.26a222.4,222.4,0,0,1,.209,25.289,143.122,143.122,0,0,1-1.881,17.347,76.493,76.493,0,0,1-3.344,14.212h56.43v23.408ZM862.334-19.646l4.18-1.254V1.254a31.432,31.432,0,0,1-5.434,2.09q-2.926.418-6.27,1.045a38.533,38.533,0,0,1-7.106.627q-9.2,0-15.257-2.926a33.276,33.276,0,0,1-9.823-6.9,31.247,31.247,0,0,1-5.852-8.569,47.855,47.855,0,0,1-2.926-7.942,105.6,105.6,0,0,1-7.942,7.942,64.2,64.2,0,0,1-12.122,8.569,88.233,88.233,0,0,1-16.3,6.9,65.868,65.868,0,0,1-20.064,2.926q-15.884,0-27.588-4.6A57.719,57.719,0,0,1,710.391-11.7,48.749,48.749,0,0,1,698.9-28.633a50.829,50.829,0,0,1-3.762-19.019q0-17.556,6.688-28.006a51.062,51.062,0,0,1,17.347-16.72,86.3,86.3,0,0,1,23.617-9.4q12.958-3.135,25.5-5.225,8.778-1.672,16.929-3.344a78.734,78.734,0,0,0,14.212-4.18,24.749,24.749,0,0,0,9.614-6.688,15.574,15.574,0,0,0,3.553-10.45q0-13.376-9.2-20.9t-25.916-7.524q-18.392,0-28.215,9.823T736.1-123.31l-33.022-6.27A118.449,118.449,0,0,1,706.838-144q2.926-9.405,11.077-19.019t22.572-16.72q14.421-7.106,37.411-7.106a110,110,0,0,1,26.752,3.135,56.166,56.166,0,0,1,21.527,10.241A50.332,50.332,0,0,1,840.389-155.5q5.225,10.868,5.225,26.752v98.23q0,12.122,9.614,12.122A25.469,25.469,0,0,0,862.334-19.646ZM813.01-67.3V-96.14a83.319,83.319,0,0,1-9.2,3.344q-5.434,1.672-11.077,3.344T781.66-86.317q-5.434,1.463-9.2,2.3-6.688,1.672-14.421,3.762A58.606,58.606,0,0,0,743.831-74.4,34.822,34.822,0,0,0,733.172-65q-4.18,5.643-4.18,14.421,0,15.466,10.032,21.736t23.826,6.27A63.032,63.032,0,0,0,782.078-25.5a48.193,48.193,0,0,0,16.093-8.569,39.992,39.992,0,0,0,10.868-14A44.317,44.317,0,0,0,813.01-67.3ZM203.148,327.978V97.66h33.858V361H184.338L60.61,130.682H58.938V361H25.08V97.66H77.748L201.476,327.978Zm150.48,38.038q-34.276,0-51.414-20.482t-17.138-52.25V178.752H318.1V290.776q0,22.154,10.659,35.321t31.977,13.167a48.981,48.981,0,0,0,34.9-14.421,50.09,50.09,0,0,0,10.868-16.511,56.484,56.484,0,0,0,3.971-21.736V178.752H443.5V361H416.746l-6.27-32.6q-6.27,16.3-22.572,26.961T353.628,366.016ZM762.85,246.886V361H729.828V249.394q0-22.154-9.823-35.321t-30.3-13.167a43.746,43.746,0,0,0-17.765,3.762,45.614,45.614,0,0,0-15.048,10.659,50.9,50.9,0,0,0-10.241,16.511,59.263,59.263,0,0,0-3.762,21.736V361H609.862V249.394q0-22.154-10.032-35.321t-30.514-13.167a43.746,43.746,0,0,0-17.765,3.762A45.615,45.615,0,0,0,536.5,215.327a50.9,50.9,0,0,0-10.241,16.511,59.263,59.263,0,0,0-3.762,21.736V361H489.478V178.752H516.23l6.27,31.768q6.27-16.3,22.154-26.334a64.429,64.429,0,0,1,35.112-10.032q25.08,0,36.784,11.077t16.3,28.215q5.016-13.794,14.212-21.736A67.455,67.455,0,0,1,666.292,179.8a75.794,75.794,0,0,1,18.81-5.016,121.619,121.619,0,0,1,12.54-1.045q34.694,0,49.951,20.482T762.85,246.886Zm140.866-73.15a74.747,74.747,0,0,1,30.514,6.27,68.039,68.039,0,0,1,24.662,18.6q10.45,12.331,16.511,30.1t6.061,40.755a131.068,131.068,0,0,1-5.434,38.874,95.376,95.376,0,0,1-15.466,30.514,69.365,69.365,0,0,1-24.453,20.064q-14.421,7.106-32.813,7.106-20.9,0-35.112-8.36t-24.244-24.244h-.418L836.418,361H810.5V97.66h33.022V207.176h.418a63.412,63.412,0,0,1,23.826-24.662Q882.816,173.736,903.716,173.736Zm-9.2,165.528q24.662,0,38.665-18.6t14-50.787q0-32.186-14-50.578T894.52,200.906q-24.244,0-38.247,18.392t-14,50.578q0,32.186,14,50.787T894.52,339.264Zm258.742-35.948,30.1,6.688q-9.2,28.424-32.186,42.218t-51.832,13.794q-46.4,0-73.15-34.276a78.475,78.475,0,0,1-15.257-31.559,132.527,132.527,0,0,1-3.971-34.485,103.987,103.987,0,0,1,7.315-37.411,86.234,86.234,0,0,1,18.81-28.842,83.691,83.691,0,0,1,28.842-18.6,100.985,100.985,0,0,1,37.411-6.688,83.227,83.227,0,0,1,34.276,6.9,79.205,79.205,0,0,1,26.543,19.019,86.611,86.611,0,0,1,17.138,28.215,97.034,97.034,0,0,1,6.061,34.485v17.556h-142.12q2.926,26.752,17.765,43.054t40.755,16.3q18.81,0,32.813-9.2T1153.262,303.316Zm-111.188-45.562h106.59a81.681,81.681,0,0,0-4.6-21.736,62.079,62.079,0,0,0-10.241-18.392,46.7,46.7,0,0,0-15.884-12.54q-9.405-4.6-21.945-4.6-12.958,0-22.572,4.389a44.066,44.066,0,0,0-16.093,12.331A62.074,62.074,0,0,0,1047.09,235.6,95.061,95.061,0,0,0,1042.074,257.754Zm276.716-79.42v29.678a72.436,72.436,0,0,0-13.376-1.254q-24.244,0-39.5,15.884t-14.421,46.4V361H1218.47V178.752h25.916l5.852,28.424h.836q9.2-15.466,22.99-22.781t31.35-7.315q3.344,0,6.9.209A30,30,0,0,1,1318.79,178.334Z" transform="translate(-25.08 263.34)" fill="#171717"/>
</svg>
