<?xml version="1.0" standalone="no"?>
<!DOCTYPE svg PUBLIC "-//W3C//DTD SVG 20010904//EN"
 "http://www.w3.org/TR/2001/REC-SVG-20010904/DTD/svg10.dtd">
<svg version="1.0" xmlns="http://www.w3.org/2000/svg"
 width="230.000000pt" height="230.000000pt" viewBox="0 0 230.000000 230.000000"
 preserveAspectRatio="xMidYMid meet">
<metadata>
Created by potrace 1.11, written by Peter Selinger 2001-2013
</metadata>
<g transform="translate(0.000000,230.000000) scale(0.100000,-0.100000)"
fill="#000000" stroke="none">
<path d="M0 1150 l0 -1150 1150 0 1150 0 0 1150 0 1150 -1150 0 -1150 0 0
-1150z m980 450 c20 -36 50 -90 66 -120 17 -30 109 -201 205 -380 l174 -325 5
445 5 445 65 0 65 0 0 -510 0 -510 -104 0 -105 0 -232 434 c-128 238 -238 439
-243 444 -8 8 -11 -120 -11 -436 l0 -447 -65 0 -65 0 0 515 0 516 102 -3 103
-3 35 -65z"/>
</g>
</svg>
